<svg width="23" height="21" viewBox="0 0 23 21" fill="none" xmlns="http://www.w3.org/2000/svg">
<path d="M20.875 0.5H2.125C1.07031 0.5 0.25 1.35938 0.25 2.375V13.625C0.25 14.6797 1.07031 15.5 2.125 15.5H20.875C21.8906 15.5 22.75 14.6797 22.75 13.625V2.375C22.75 1.35938 21.8906 0.5 20.875 0.5ZM20.6406 13.625H2.35938C2.20312 13.625 2.125 13.5469 2.125 13.3906V2.60938C2.125 2.49219 2.20312 2.375 2.35938 2.375H20.6406C20.7578 2.375 20.875 2.49219 20.875 2.60938V13.3906C20.875 13.5469 20.7578 13.625 20.6406 13.625ZM19 19.5625C19 19.0547 18.5703 18.625 18.0625 18.625H14.1953L13.4531 16.4766C13.4141 16.2812 13.2188 16.125 13.0234 16.125H9.9375C9.74219 16.125 9.54688 16.2812 9.50781 16.4766L8.76562 18.625H4.9375C4.39062 18.625 4 19.0547 4 19.5625C4 20.1094 4.39062 20.5 4.9375 20.5H18.0625C18.5703 20.5 19 20.1094 19 19.5625Z" fill="white"/>
</svg>
