<svg width="13" height="21" viewBox="0 0 13 21" fill="none" xmlns="http://www.w3.org/2000/svg">
<path d="M7.75 16.75C7.75 16.0859 7.16406 15.5 6.5 15.5C5.79688 15.5 5.25 16.0859 5.25 16.75C5.25 17.4531 5.79688 18 6.5 18C7.16406 18 7.75 17.4531 7.75 16.75ZM12.75 2.375C12.75 1.35938 11.8906 0.5 10.875 0.5H2.125C1.07031 0.5 0.25 1.35938 0.25 2.375V18.625C0.25 19.6797 1.07031 20.5 2.125 20.5H10.875C11.8906 20.5 12.75 19.6797 12.75 18.625V2.375ZM10.875 18.3906C10.875 18.5469 10.7578 18.625 10.6406 18.625H2.35938C2.20312 18.625 2.125 18.5469 2.125 18.3906V2.60938C2.125 2.49219 2.20312 2.375 2.35938 2.375H10.6406C10.7578 2.375 10.875 2.49219 10.875 2.60938V18.3906Z" fill="white"/>
</svg>
